<?xml version="1.0" standalone="no"?>
<!DOCTYPE svg PUBLIC "-//W3C//DTD SVG 20010904//EN"
 "http://www.w3.org/TR/2001/REC-SVG-20010904/DTD/svg10.dtd">
<svg version="1.0" xmlns="http://www.w3.org/2000/svg"
 width="2560.000000pt" height="1575.000000pt" viewBox="0 0 2560.000000 1575.000000"
 preserveAspectRatio="xMidYMid meet">

<g transform="translate(0.000000,1575.000000) scale(0.100000,-0.100000)"
fill="#000000" stroke="none">
<path d="M1615 15734 c-558 -68 -1061 -397 -1357 -890 -110 -183 -194 -415
-235 -644 -17 -101 -18 -318 -18 -6325 0 -6007 1 -6224 18 -6325 53 -299 169
-571 345 -810 72 -97 276 -300 372 -372 233 -171 488 -282 785 -341 l110 -21
11095 -3 c7423 -3 11129 0 11198 7 449 44 844 235 1157 561 255 265 413 575
488 954 l21 110 4 6165 c2 4505 0 6196 -8 6280 -22 226 -81 433 -180 635 -281
573 -836 961 -1469 1025 -71 7 -3535 10 -11160 9 -9175 -1 -11075 -3 -11166
-15z m22268 -1229 c229 -48 424 -243 472 -471 22 -104 22 -12214 0 -12318 -24
-114 -78 -209 -170 -302 -92 -92 -185 -144 -302 -169 -103 -22 -22063 -22
-22166 0 -117 25 -210 77 -303 169 -92 93 -144 186 -169 303 -22 103 -22
12213 0 12316 48 228 241 423 467 472 97 21 22071 21 22171 0z"/>
<path d="M3690 7875 l0 -4185 1230 0 1230 0 0 2395 c0 1317 3 2395 8 2394 4 0
557 -689 1230 -1530 891 -1115 1226 -1528 1235 -1520 7 5 559 694 1227 1530
668 836 1218 1520 1223 1520 4 1 7 -1077 7 -2394 l0 -2395 1230 0 1230 0 0
4185 0 4185 -1232 -1 -1233 0 -1225 -1534 c-674 -844 -1228 -1534 -1232 -1534
-4 -1 -560 689 -1235 1533 l-1228 1535 -1232 0 -1233 1 0 -4185z"/>
<path d="M17848 9908 l-3 -2153 -1227 -5 -1227 -5 1839 -2023 c1012 -1112
1842 -2023 1845 -2025 3 -1 834 909 1847 2023 l1841 2025 -1226 3 -1227 2 0
2155 0 2155 -1230 0 -1230 0 -2 -2152z"/>
</g>
</svg>
