<?xml version="1.0" standalone="no"?>
<!DOCTYPE svg PUBLIC "-//W3C//DTD SVG 20010904//EN"
 "http://www.w3.org/TR/2001/REC-SVG-20010904/DTD/svg10.dtd">
<svg version="1.0" xmlns="http://www.w3.org/2000/svg"
 width="980.000000pt" height="980.000000pt" viewBox="0 0 980.000000 980.000000"
 preserveAspectRatio="xMidYMid meet">

<g transform="translate(0.000000,980.000000) scale(0.100000,-0.100000)"
fill="#000000" stroke="none">
<path d="M4690 9794 c-1467 -74 -2829 -804 -3713 -1988 -534 -717 -853 -1533
-953 -2441 -25 -222 -25 -738 -1 -950 135 -1193 660 -2242 1536 -3069 1221
-1151 2900 -1600 4494 -1200 755 190 1430 539 2032 1052 139 118 441 424 556
562 418 502 710 1021 909 1620 543 1626 187 3381 -953 4710 -209 243 -528 539
-801 743 -710 529 -1540 853 -2420 942 -149 15 -543 26 -686 19z m610 -464
c910 -85 1732 -414 2425 -971 574 -461 1040 -1094 1309 -1777 227 -577 327
-1142 313 -1777 -8 -376 -47 -675 -133 -1015 -293 -1170 -1031 -2150 -2069
-2750 -1070 -618 -2420 -757 -3635 -374 -1116 351 -2054 1154 -2584 2211 -491
980 -607 2173 -316 3235 430 1569 1696 2771 3293 3128 237 53 466 84 777 104
94 6 499 -3 620 -14z"/>
<path d="M4469 6082 c-39 -20 -62 -41 -84 -77 l-30 -48 0 -991 0 -991 22 -40
c78 -145 275 -173 367 -52 57 74 56 67 56 732 0 336 3 653 7 704 l6 91 73 -70
c89 -87 145 -114 234 -115 83 0 140 27 227 108 39 37 67 57 73 51 6 -6 11
-297 12 -704 3 -681 3 -696 24 -740 27 -58 92 -117 139 -126 116 -21 205 18
252 113 l28 58 3 965 c2 704 0 976 -8 1005 -38 131 -195 194 -319 128 -28 -16
-125 -93 -217 -171 -91 -79 -178 -148 -193 -153 -39 -14 -73 2 -139 64 -103
97 -302 257 -338 272 -59 24 -133 19 -195 -13z"/>
<path d="M2835 6041 c-49 -22 -98 -76 -116 -128 -20 -56 -21 -1950 -1 -2006
18 -50 56 -93 106 -120 41 -22 45 -22 611 -25 381 -2 586 1 620 8 71 15 111
46 143 110 l27 55 3 960 c2 705 0 971 -9 1002 -6 23 -27 61 -47 84 -118 138
-332 89 -381 -87 -7 -27 -11 -301 -11 -862 l0 -822 -312 2 -313 3 -5 840 c-5
837 -5 840 -27 880 -26 49 -78 100 -116 114 -43 17 -127 13 -172 -8z"/>
<path d="M6185 6046 c-40 -17 -88 -65 -111 -113 -18 -36 -19 -79 -22 -1008 -2
-744 0 -980 10 -1015 15 -56 78 -121 134 -138 66 -19 734 -17 802 3 203 60
220 326 27 412 -34 15 -76 18 -282 21 l-243 4 0 817 c0 901 1 885 -62 957 -45
51 -96 74 -165 74 -32 -1 -72 -7 -88 -14z"/>
<path d="M2020 6019 c-34 -15 -163 -138 -532 -507 -267 -268 -494 -503 -504
-522 -24 -46 -24 -134 0 -180 25 -47 959 -984 1016 -1018 65 -39 156 -38 222
1 94 55 132 173 88 275 -19 44 -83 112 -421 446 -220 217 -399 397 -399 400 0
3 28 24 63 48 91 62 727 700 755 759 88 182 -104 381 -288 298z"/>
<path d="M7621 6013 c-77 -40 -114 -96 -119 -177 -7 -113 -7 -113 428 -543
l390 -385 -383 -389 c-410 -417 -437 -451 -437 -539 0 -63 11 -90 56 -140 75
-83 155 -100 254 -54 47 21 129 99 536 507 411 412 484 489 499 529 26 70 17
136 -28 201 -48 69 -952 970 -996 992 -19 9 -59 19 -90 22 -48 4 -64 1 -110
-24z"/>
</g>
</svg>
